<?xml version="1.0" encoding="UTF-8" standalone="no"?>
<svg
   height="24"
   viewBox="0 -960 960 960"
   width="24"
   version="1.1"
   id="svg1"
   sodipodi:docname="screen_rotation.svg"
   inkscape:export-filename="screen_rotation.svg"
   inkscape:export-xdpi="96"
   inkscape:export-ydpi="96"
   inkscape:version="1.3.2 (091e20e, 2023-11-25, custom)"
   xmlns:inkscape="http://www.inkscape.org/namespaces/inkscape"
   xmlns:sodipodi="http://sodipodi.sourceforge.net/DTD/sodipodi-0.dtd"
   xmlns="http://www.w3.org/2000/svg"
   xmlns:svg="http://www.w3.org/2000/svg">
  <defs
     id="defs1" />
  <sodipodi:namedview
     id="namedview1"
     pagecolor="#505050"
     bordercolor="#eeeeee"
     borderopacity="1"
     inkscape:showpageshadow="0"
     inkscape:pageopacity="0"
     inkscape:pagecheckerboard="0"
     inkscape:deskcolor="#505050"
     inkscape:zoom="25.205729"
     inkscape:cx="9.7596861"
     inkscape:cy="13.389813"
     inkscape:window-width="1920"
     inkscape:window-height="1009"
     inkscape:window-x="1912"
     inkscape:window-y="-8"
     inkscape:window-maximized="1"
     inkscape:current-layer="svg1" />
  <path
     d="M496-182 182-496q-23-23-23-54t23-54l174-174q23-23 54-23t54 23l314 314q23 23 23 54t-23 54L604-182q-23 23-54 23t-54-23Zm54-58 170-170-310-310-170 170 310 310ZM480 0q-99 0-186.5-37.5t-153-103Q75-206 37.5-293.5T0-480h80q0 71 24 136t66.5 117Q213-175 272-138.5T401-87L296-192l56-56L588-12q-26 6-53.5 9T480 0Zm400-480q0-71-24-136t-66.5-117Q747-785 688-821.5T559-873l105 105-56 56-236-236q26-6 53.5-9t54.5-3q99 0 186.5 37.5t153 103q65.5 65.5 103 153T960-480h-80Zm-400 0Z"
     id="path1"
     style="fill:#ffffff;fill-opacity:1" />
</svg>
